<?xml version="1.0" encoding="UTF-8"?>
<svg width="244px" height="58px" viewBox="0 0 244 58" version="1.1" xmlns="http://www.w3.org/2000/svg" xmlns:xlink="http://www.w3.org/1999/xlink">
    <!-- Generator: Sketch 53.2 (72643) - https://sketchapp.com -->
    <title>Yes_Scotland_logo</title>
    <desc>Created with Sketch.</desc>
    <defs>
        <polygon id="path-1" points="0.521891622 0.517941223 121.437146 0.517941223 121.437146 58.1070902 0.521891622 58.1070902"></polygon>
    </defs>
    <g id="Page-1" stroke="none" stroke-width="1" fill="none" fill-rule="evenodd">
        <g id="Yes_Scotland_logo" transform="translate(0.000000, -1.000000)">
            <g id="g8477" transform="translate(61.500000, 30.000000) scale(-1, 1) rotate(-180.000000) translate(-61.500000, -30.000000) ">
                <g id="g8479-Clipped" transform="translate(-0.000000, -0.000000)">
                    <mask id="mask-2" fill="white">
                        <use xlink:href="#path-1"></use>
                    </mask>
                    <g id="path8483"></g>
                    <g id="g8479" mask="url(#mask-2)">
                        <g transform="translate(-2.084746, -2.068966)">
                            <g id="g8485" transform="translate(1.533617, 4.006997)">
                                <polygon id="path8487" fill="#1476C6" fill-rule="nonzero" points="20.4709742 20.3160215 1.07131432 54.9074342 19.8534332 54.9074342 29.0483124 34.7370108 38.6321402 54.9074342 57.2573149 54.9074342 37.4721183 20.3160215 37.4721183 0.145598154 20.4709742 0.145598154"></polygon>
                            </g>
                            <g id="g8489" transform="translate(39.537298, 1.453611)">
                                <path d="M30.7064613,27.0880287 C30.7064613,30.7686146 27.9224088,33.7618418 23.9817463,33.7618418 C19.4235427,33.7618418 16.7964344,31.3848672 16.1004212,27.0880287 L30.7064613,27.0880287 Z M16.0219492,19.1884823 C16.4074858,14.6613955 19.0345942,11.4413061 23.828214,11.4413061 C26.30179,11.4413061 29.0073705,12.3622991 30.2424526,14.2787771 L44.5414281,14.2787771 C41.450311,5.68848602 33.0265051,1.6997738 23.9066861,1.6997738 C11.0747971,1.6997738 1.41590905,9.21670176 1.41590905,22.4864498 C1.41590905,34.0665821 9.91818701,43.5033741 22.5897201,43.5033741 C38.5127262,43.5033741 45.3909735,34.6828347 45.3909735,19.1884823 L16.0219492,19.1884823 Z" id="path8491" fill="#1476C6" fill-rule="nonzero"></path>
                            </g>
                            <g id="g8493" transform="translate(76.333533, 1.902257)">
                                <path d="M27.2946323,30.4740323 C27.2161602,31.7776437 26.5235589,32.7765147 25.5170694,33.4672594 C24.5890519,34.2324963 23.3539698,34.6151147 22.1154758,34.6151147 C19.9523762,34.6151147 17.4788002,34.1546182 17.4788002,31.5473954 C17.4788002,30.3961542 18.4068177,29.8611656 19.2563631,29.4785472 C21.8084112,28.4017981 27.6051087,28.0970578 32.7023813,26.410828 C37.8064776,24.7990903 42.2896209,21.8092491 42.2896209,15.2878062 C42.2896209,4.24266249 31.6208315,1.25282133 21.8834714,1.25282133 C12.4565878,1.25282133 4.15560777,3.66365588 1.86968231,13.8318246 L16.4757224,13.8318246 C17.3082087,12.4571072 17.1717355,12.7584615 18.3283456,11.7595905 C19.1028308,11.0688457 20.5699173,10.6083492 22.4259523,10.6083492 C24.4355196,10.6083492 27.6051087,11.376972 27.6051087,13.6760685 C27.6051087,15.9785509 26.2915546,16.6692957 19.177891,17.895029 C7.50943571,19.8893851 2.79428798,23.569971 2.79428798,30.3961542 C2.79428798,40.4458128 13.6916699,43.0530356 21.7299391,43.0530356 C30.3857494,43.0530356 40.8191226,40.6760611 41.2046593,30.4740323 L27.2946323,30.4740323 Z" id="path8495" fill="#1476C6" fill-rule="nonzero"></path>
                            </g>
                        </g>
                    </g>
                </g>
            </g>
            <path d="M129.417,58.184 C123.053,58.184 119.279,54.336 119.279,47.528 L119.279,2.166 L129.787,0.982 L129.787,47.232 C129.787,48.934 130.453,49.822 131.933,49.822 C132.747,49.822 133.413,49.674 134.005,49.378 L136.151,56.852 C134.449,57.592 132.081,58.184 129.417,58.184 Z M169.653,46.122 C169.653,49.304 170.615,50.414 172.539,51.08 L170.319,58.036 C165.879,57.666 162.919,56.186 161.291,52.264 C158.479,56.556 154.187,58.184 149.525,58.184 C141.681,58.184 136.797,53.152 136.797,46.048 C136.797,37.464 143.235,32.802 154.853,32.802 L159.367,32.802 L159.367,30.878 C159.367,25.994 157.295,24.44 152.337,24.44 C149.747,24.44 145.973,25.18 141.977,26.512 L139.609,19.482 C144.493,17.558 149.673,16.596 154.113,16.596 C164.991,16.596 169.653,21.406 169.653,30.286 L169.653,46.122 Z M152.411,50.636 C155.445,50.636 157.739,49.082 159.367,46.27 L159.367,38.796 L155.889,38.796 C150.191,38.796 147.379,40.868 147.379,45.16 C147.379,48.638 149.155,50.636 152.411,50.636 Z M195.899,16.596 C205.075,16.596 210.403,24.292 210.403,37.39 C210.403,49.526 204.557,58.184 194.863,58.184 C190.497,58.184 187.019,56.334 184.577,53.152 L183.985,57 L174.661,57 L174.661,2.166 L185.169,0.982 L185.169,21.998 C187.611,18.668 191.459,16.596 195.899,16.596 Z M191.903,50.414 C196.343,50.414 199.451,46.936 199.451,37.39 C199.451,27.178 196.565,24.366 192.421,24.366 C189.387,24.366 186.945,26.438 185.169,29.398 L185.169,46.196 C186.797,48.86 189.091,50.414 191.903,50.414 Z M228.289,16.596 C233.987,16.596 238.797,18.372 242.497,21.332 L238.501,27.326 C235.319,25.328 232.137,24.218 228.733,24.218 C225.255,24.218 223.331,25.624 223.331,27.77 C223.331,30.064 224.663,31.1 231.545,33.098 C239.389,35.244 243.829,38.5 243.829,45.456 C243.829,53.596 236.207,58.184 226.883,58.184 C220.075,58.184 214.599,55.89 210.899,52.486 L216.079,46.714 C219.039,49.008 222.665,50.562 226.587,50.562 C230.509,50.562 233.025,48.934 233.025,46.27 C233.025,43.31 231.619,42.348 224.367,40.35 C216.449,38.13 212.749,34.208 212.749,28.288 C212.749,21.628 218.817,16.596 228.289,16.596 Z" id="labs" fill="#404040" fill-rule="nonzero"></path>
        </g>
    </g>
</svg>